<?xml version="1.0" encoding="utf-8"?>
<svg viewBox="0 0 500 500" xmlns="http://www.w3.org/2000/svg">
  <path d="M 401.067 29.341 C 441.62 47.603 456.072 110.778 340.119 268.402 C 267.66 366.902 134.493 415.281 119.157 401.211 C 101.825 385.309 142.896 264.22 193.434 187.392 C 308.201 12.923 362.048 11.77 401.067 29.341 Z" style="stroke-width: 5px; stroke: rgb(0, 0, 0); fill: rgb(255, 255, 255); paint-order: fill;"/>
  <path d="M 401.067 29.341 C 432.706 43.589 448.457 85.174 398.789 177.621 C 398.789 177.621 352.861 176.512 289.8 173.4 C 273.346 127.65 276.183 78.569 276.183 78.569 C 337.06 13.734 372.921 16.666 401.067 29.341 Z" style="stroke-width: 5px; stroke: rgb(0, 0, 0); paint-order: fill;"/>
  <path style="stroke: rgb(0, 0, 0); fill: none; stroke-width: 7px; pointer-events: none; stroke-linecap: round; paint-order: stroke;" d="M 80.148 456.558 C 80.148 456.558 123.002 458.552 169.884 447.02 C 189.684 442.15 292.675 407.469 273.142 396.777 C 243.585 380.599 229.157 431.348 244.145 443.339 C 257.701 454.184 335.055 402.942 378.806 416.406 C 407.824 425.336 395.866 474.121 425.343 481.395 C 441.462 485.373 490.047 466.172 490.047 466.172"/>
  <path d="M 79.115 455.524 C 79.115 455.524 194.87 298.106 253.824 220.576 C 302.696 156.305 401.067 29.341 401.067 29.341" style="fill: none; stroke-width: 5px; stroke: rgb(0, 0, 0);"/>
  <path d="M 191.692 303.361 C 181.978 289.67 181.568 286.703 183.222 268.03" style="fill: none; stroke-width: 5px; stroke: rgb(0, 0, 0); stroke-linecap: round;"/>
  <path d="M 225.922 257.551 C 247.027 258.545 246.652 261.043 263.083 255.298" style="fill: none; stroke-width: 5px; stroke: rgb(0, 0, 0); stroke-linecap: round;"/>
  <path d="M 253.824 220.576 C 242.511 205.495 243.66 185.012 243.66 185.012" style="fill: none; stroke-width: 5px; stroke: rgb(0, 0, 0); stroke-linecap: round;"/>
  <path d="M 288.482 172.65 C 338.237 107.852 399.067 29.341 399.067 29.341" style="fill: none; stroke-linecap: round; stroke: rgb(255, 255, 255); stroke-width: 2px;"/>
  <path d="M 81.107 452.702 C 81.107 452.702 96.277 432.238 118.431 402.235" style="fill: none; stroke: rgb(0, 0, 0); stroke-linecap: round; stroke-width: 9px; stroke-miterlimit: 8.45;"/>
</svg>
